<?xml version="1.0" standalone="no"?>
<!DOCTYPE svg PUBLIC "-//W3C//DTD SVG 20010904//EN"
 "http://www.w3.org/TR/2001/REC-SVG-20010904/DTD/svg10.dtd">
<svg version="1.0" xmlns="http://www.w3.org/2000/svg"
 width="2000.000000pt" height="2000.000000pt" viewBox="0 0 2000.000000 2000.000000"
 preserveAspectRatio="xMidYMid meet">

<g transform="translate(0.000000,2000.000000) scale(0.100000,-0.100000)"
fill="#000000" stroke="none">
<path d="M4280 18030 c-8 -14 -8 -26 0 -40 9 -17 21 -20 70 -20 49 0 61 4 74
22 11 15 12 26 5 40 -8 15 -22 18 -74 18 -54 0 -66 -3 -75 -20z"/>
<path d="M4532 18038 c-16 -16 -15 -43 2 -57 22 -19 126 -10 140 12 8 12 8 22
0 35 -14 21 -122 30 -142 10z"/>
<path d="M4076 18031 c-37 -8 -55 -34 -40 -58 9 -14 24 -17 70 -15 61 3 84 14
84 41 0 38 -39 49 -114 32z"/>
<path d="M4779 18019 c-37 -37 3 -69 86 -69 35 0 47 5 56 21 16 31 -14 55 -75
62 -38 4 -52 1 -67 -14z"/>
<path d="M3840 17997 c-36 -10 -46 -17 -48 -36 -6 -38 19 -50 81 -39 46 8 77
28 77 49 0 14 -31 39 -48 38 -9 0 -37 -6 -62 -12z"/>
<path d="M5023 17989 c-17 -17 -16 -44 0 -57 7 -6 38 -14 68 -18 43 -5 57 -3
68 9 15 19 7 53 -14 61 -38 14 -111 17 -122 5z"/>
<path d="M3598 17944 c-43 -13 -48 -18 -48 -44 0 -39 26 -46 95 -25 50 14 55
18 55 44 0 44 -24 49 -102 25z"/>
<path d="M5262 17938 c-22 -22 -14 -58 16 -69 46 -18 113 -16 125 3 14 22 -12
53 -52 61 -16 3 -39 9 -52 12 -14 3 -30 0 -37 -7z"/>
<path d="M3353 17870 c-42 -19 -49 -32 -37 -64 8 -20 38 -20 97 0 49 17 68 44
47 69 -17 20 -57 18 -107 -5z"/>
<path d="M5508 17872 c-29 -6 -34 -43 -8 -64 33 -27 98 -44 118 -31 26 16 27
50 2 63 -37 20 -94 36 -112 32z"/>
<path d="M5722 17768 c-24 -24 -13 -47 38 -73 57 -29 85 -32 98 -9 16 28 2 50
-44 72 -50 25 -75 27 -92 10z"/>
<path d="M5940 17655 c-19 -23 -3 -48 50 -78 40 -23 53 -26 70 -17 36 19 25
55 -24 84 -50 29 -78 33 -96 11z"/>
<path d="M6156 17534 c-24 -24 -20 -40 22 -74 44 -37 77 -47 98 -29 26 21 12
52 -40 87 -55 37 -59 38 -80 16z"/>
<path d="M6352 17388 c-22 -22 -12 -45 35 -82 52 -41 68 -42 91 -8 14 21 13
24 -28 62 -44 41 -76 50 -98 28z"/>
<path d="M13110 17261 c-13 -25 -13 -27 6 -45 10 -11 34 -16 69 -16 44 0 57 4
69 22 11 15 12 26 5 40 -15 27 -134 27 -149 -1z"/>
<path d="M13362 17268 c-7 -7 -12 -20 -12 -29 0 -30 26 -40 92 -37 58 3 63 5
66 27 3 15 -3 30 -14 38 -22 16 -116 17 -132 1z"/>
<path d="M12883 17260 c-26 -11 -32 -54 -8 -67 8 -5 40 -6 71 -3 64 6 88 26
68 58 -13 20 -94 27 -131 12z"/>
<path d="M13601 17242 c-17 -32 14 -60 69 -63 69 -3 77 -1 83 21 9 35 -16 53
-81 58 -53 4 -61 2 -71 -16z"/>
<path d="M6548 17239 c-32 -18 -21 -55 26 -93 46 -38 65 -43 84 -24 22 22 13
45 -33 87 -48 44 -51 46 -77 30z"/>
<path d="M12657 17233 c-46 -7 -60 -64 -18 -78 28 -9 114 12 128 30 8 13 9 23
2 36 -10 19 -42 22 -112 12z"/>
<path d="M13853 17219 c-7 -7 -13 -21 -13 -30 0 -25 19 -36 78 -44 57 -8 82 3
82 36 0 24 -25 36 -86 44 -34 5 -53 3 -61 -6z"/>
<path d="M12465 17193 c-84 -19 -104 -37 -84 -75 9 -17 18 -20 53 -15 69 10
96 24 96 50 0 25 -17 48 -34 46 -6 -1 -20 -3 -31 -6z"/>
<path d="M14097 17179 c-24 -14 -21 -46 6 -64 35 -23 116 -24 131 -2 14 22 -2
49 -35 57 -58 16 -85 18 -102 9z"/>
<path d="M12190 17112 c-39 -15 -45 -21 -45 -47 0 -38 25 -43 94 -20 53 17 67
35 51 66 -13 23 -41 23 -100 1z"/>
<path d="M14330 17115 c-29 -34 12 -72 89 -82 26 -4 41 0 50 10 23 29 4 55
-54 71 -65 20 -70 20 -85 1z"/>
<path d="M6727 17069 c-28 -16 -20 -52 22 -93 68 -66 126 -25 66 47 -36 42
-66 58 -88 46z"/>
<path d="M14567 17039 c-23 -33 -6 -55 58 -75 45 -15 57 -15 70 -4 26 21 14
53 -26 72 -65 31 -85 32 -102 7z"/>
<path d="M11968 17028 c-49 -21 -62 -39 -53 -69 14 -45 155 7 155 56 0 9 -33
35 -43 34 -7 0 -33 -10 -59 -21z"/>
<path d="M3286 16974 c-129 -31 -261 -126 -339 -244 -116 -174 -124 -420 -20
-598 l25 -44 -31 -32 c-17 -18 -31 -36 -31 -42 0 -12 162 -174 175 -174 5 0
25 16 45 35 l36 35 42 -20 c68 -33 151 -50 242 -50 164 0 292 52 406 165 182
181 223 440 108 674 -69 140 -220 259 -375 296 -79 18 -205 18 -283 -1z m348
-117 c305 -145 382 -532 154 -773 -102 -108 -209 -154 -359 -154 -433 0 -650
521 -345 826 62 62 152 116 224 134 20 5 85 8 143 6 98 -2 112 -5 183 -39z"/>
<path d="M14797 16963 c-18 -17 -5 -54 25 -73 67 -40 123 -34 116 14 -5 34
-119 82 -141 59z"/>
<path d="M11743 16918 c-45 -23 -57 -40 -48 -68 10 -31 35 -31 89 -3 44 24 51
32 51 58 0 25 -4 30 -25 32 -14 1 -44 -7 -67 -19z"/>
<path d="M16289 16601 c-31 -32 -35 -50 -18 -84 6 -12 176 -185 378 -384 329
-325 369 -362 399 -363 55 0 92 63 63 109 -11 17 -642 652 -704 708 -26 24
-57 43 -68 43 -11 0 -34 -13 -50 -29z"/>
<path d="M5707 16055 c-185 -35 -318 -126 -382 -260 -51 -109 -69 -225 -69
-460 -1 -209 6 -282 40 -394 8 -29 26 -63 40 -76 l24 -22 -25 -72 c-34 -102
-92 -236 -133 -307 -33 -58 -37 -61 -108 -89 -41 -15 -77 -32 -80 -37 -17 -28
191 -275 297 -353 23 -17 32 -40 58 -150 34 -146 64 -345 83 -545 13 -149 15
-690 8 -1925 -5 -788 -2 -899 36 -1255 27 -254 70 -511 131 -787 5 -20 1 -23
-22 -23 l-28 0 6 -217 c7 -227 16 -301 43 -359 17 -36 58 -64 94 -64 20 0 20
3 18 318 l-3 317 -37 3 c-32 3 -39 8 -44 30 -3 15 -12 52 -19 82 -45 184 -93
491 -119 760 -39 400 -45 751 -32 1985 6 628 6 896 -3 1025 -19 279 -43 458
-87 649 -13 57 -22 106 -20 108 2 3 25 -7 49 -21 25 -15 82 -41 128 -58 70
-26 99 -32 174 -32 78 -1 95 2 127 22 21 13 46 37 55 53 10 16 20 29 24 29 9
0 93 -343 118 -485 41 -229 68 -446 92 -750 6 -79 14 -605 19 -1200 5 -583 11
-1085 14 -1115 3 -30 11 -127 17 -215 13 -197 50 -493 84 -679 14 -76 23 -141
21 -144 -9 -9 -228 -31 -376 -38 l-145 -7 -1 -461 c-1 -254 -7 -569 -13 -701
-16 -345 -40 -668 -51 -679 -21 -21 -24 14 -14 167 16 212 32 536 40 800 l7
207 -38 0 c-30 0 -45 7 -75 37 -30 31 -40 52 -53 109 -19 80 -41 429 -32 484
l6 36 -203 14 c-112 7 -268 16 -348 19 l-145 6 -12 75 c-26 172 -36 384 -30
673 6 307 7 324 62 887 52 535 65 718 72 1025 12 562 -40 1135 -152 1690 -47
234 -108 492 -119 502 -21 21 -15 -28 22 -180 171 -706 245 -1410 221 -2112
-9 -279 -25 -490 -69 -925 -62 -618 -79 -961 -61 -1250 11 -170 24 -294 37
-362 6 -28 5 -28 -49 -28 -48 0 -62 5 -123 47 -124 83 -300 159 -510 218 -20
6 -28 371 -15 646 15 321 30 492 96 1084 30 270 62 580 72 690 l17 200 69 105
c162 245 265 525 292 793 5 55 4 67 -8 67 -11 0 -18 -24 -27 -96 -42 -334
-185 -650 -425 -937 -115 -138 -66 -160 -413 183 -311 307 -672 643 -697 648
-34 8 -11 -28 58 -87 143 -126 466 -434 692 -660 l229 -230 -64 -60 c-63 -57
-76 -88 -25 -61 25 14 185 174 248 249 l37 45 0 -45 c0 -65 -24 -308 -80 -809
-88 -795 -104 -1018 -98 -1433 1 -152 0 -277 -4 -277 -5 0 -8 6 -8 13 0 14
-66 117 -86 133 -32 26 -424 648 -586 929 -177 307 -247 464 -234 525 14 72
154 242 469 570 l206 215 -77 75 c-85 84 -606 578 -692 657 l-54 50 -51 -61
c-241 -294 -477 -684 -647 -1071 -101 -228 -115 -293 -87 -408 74 -309 498
-897 1188 -1647 78 -85 152 -174 163 -198 20 -41 81 -102 103 -102 26 0 146
-140 194 -226 l50 -90 11 -265 c33 -846 47 -1831 31 -2204 -6 -143 -20 -354
-31 -470 -11 -115 -31 -329 -45 -475 -65 -695 -88 -1082 -88 -1525 -1 -572 46
-919 152 -1138 52 -108 105 -166 207 -229 l84 -51 0 -327 c0 -316 1 -328 20
-345 12 -10 30 -34 41 -52 l21 -34 39 80 c94 192 214 241 316 128 20 -23 40
-41 43 -40 3 1 25 98 50 214 l45 212 85 17 c150 31 314 119 369 199 77 114
147 421 195 856 53 477 82 1033 111 2100 9 308 20 634 25 725 23 365 61 936
64 945 4 12 197 -379 319 -646 196 -428 202 -447 194 -684 -9 -253 -41 -438
-202 -1170 -81 -372 -126 -611 -162 -865 -21 -158 -25 -554 -5 -645 57 -258
132 -358 374 -494 l58 -32 0 -367 0 -367 45 -28 c36 -23 67 -32 152 -43 58 -8
107 -13 109 -11 1 1 29 43 61 92 55 83 104 137 134 147 7 2 35 112 63 246 l52
243 93 47 c181 92 331 262 391 442 85 253 192 956 259 1705 45 499 55 685 55
1075 l1 385 -33 205 c-106 669 -287 1548 -472 2285 -74 296 -174 661 -186 674
-1 2 -31 -6 -65 -18 -35 -12 -68 -21 -74 -21 -7 0 -23 52 -38 123 -106 496
-137 967 -137 2092 0 788 -16 1106 -76 1525 -44 311 -138 693 -180 735 -26 26
-26 12 1 -58 77 -205 152 -584 189 -962 31 -306 38 -511 46 -1425 5 -514 13
-998 19 -1075 25 -328 72 -672 120 -877 11 -46 17 -86 13 -90 -4 -3 -42 -14
-84 -23 -51 -11 -78 -22 -78 -31 0 -21 45 -116 82 -175 53 -83 134 -166 221
-227 56 -39 75 -58 68 -65 -14 -14 -51 7 -140 77 -94 74 -165 166 -224 289
-47 96 -54 107 -74 102 -52 -12 -248 -43 -252 -40 -18 19 -83 452 -105 700 -9
94 -18 195 -21 225 -2 30 -9 530 -14 1110 -5 580 -14 1132 -20 1225 -33 505
-92 898 -187 1241 -21 78 -34 149 -34 179 4 126 1 145 -25 169 l-25 24 6 140
7 140 59 6 c33 4 72 12 86 17 118 44 198 179 252 424 50 230 51 232 85 268 66
68 105 179 105 298 0 57 3 64 46 116 59 73 84 123 84 168 0 77 -85 120 -404
206 -255 69 -375 81 -519 54z m363 -1137 c63 -22 116 -42 118 -44 8 -5 -29
-63 -59 -92 -89 -87 -199 -21 -199 121 0 39 4 57 13 57 6 0 64 -19 127 -42z
m-2322 -5403 c77 -83 5 -192 -82 -124 -56 44 -71 109 -35 148 29 31 74 22 117
-24z m926 -274 c7 -10 -83 -155 -150 -243 -103 -133 -331 -348 -370 -348 -14
0 -15 -11 -10 -77 21 -278 31 -891 31 -1933 0 -1171 -4 -1352 -46 -2160 -25
-485 -30 -963 -11 -1100 16 -112 44 -239 74 -330 23 -72 95 -222 133 -278 17
-25 22 -39 14 -47 -14 -14 -49 30 -99 127 -120 230 -170 484 -170 868 0 113
11 446 25 740 35 755 44 1094 51 1830 8 754 -13 1941 -42 2390 l-6 94 21 -18
c12 -11 21 -31 21 -48 0 -15 3 -28 6 -28 15 0 171 139 250 223 75 80 244 314
244 338 0 12 27 12 34 0z m1251 -1634 c345 -553 509 -914 589 -1292 88 -424
56 -712 -149 -1345 -224 -692 -287 -1058 -286 -1667 0 -231 -3 -283 -14 -283
-20 0 -29 161 -22 425 15 542 85 905 307 1590 130 402 173 619 172 880 0 174
-19 313 -67 500 -89 350 -250 682 -587 1218 -91 144 -109 184 -75 171 7 -2 66
-91 132 -197z"/>
<path d="M8500 15570 l0 -179 113 -3 112 -3 5 -200 c5 -210 7 -220 57 -267 59
-56 72 -58 448 -58 371 0 389 2 443 53 52 48 57 69 62 277 l5 195 113 3 112 3
0 179 0 180 -735 0 -735 0 0 -180z"/>
<path d="M16743 15054 c-3 -9 0 -40 7 -70 15 -62 37 -82 71 -63 24 12 23 47
-5 112 -12 29 -20 37 -41 37 -14 0 -28 -7 -32 -16z"/>
<path d="M16805 14819 c-8 -12 3 -97 16 -120 14 -26 38 -30 58 -10 17 17 18
25 9 68 -6 26 -15 54 -20 61 -13 15 -54 16 -63 1z"/>
<path d="M16851 14572 c-11 -20 3 -107 20 -128 15 -18 34 -18 52 1 16 15 13
75 -4 123 -10 27 -54 30 -68 4z"/>
<path d="M16892 14338 c-16 -16 -15 -110 1 -132 8 -11 23 -17 38 -14 22 3 24
8 27 64 2 46 -1 66 -13 78 -19 19 -37 20 -53 4z"/>
<path d="M9942 14088 c-16 -16 -15 -35 4 -91 17 -50 44 -68 71 -46 30 25 -3
141 -42 147 -11 1 -26 -3 -33 -10z"/>
<path d="M16904 14086 c-3 -7 -4 -39 -2 -71 3 -65 23 -89 56 -69 20 13 29 102
12 134 -12 23 -58 27 -66 6z"/>
<path d="M10027 13863 c-28 -27 23 -136 65 -141 41 -5 46 33 14 97 -20 39 -32
51 -50 51 -12 0 -26 -3 -29 -7z"/>
<path d="M16916 13844 c-11 -10 -16 -34 -16 -68 0 -59 14 -80 52 -74 21 3 23
9 26 66 4 84 -22 116 -62 76z"/>
<path d="M10134 13626 c-4 -18 3 -37 25 -69 34 -50 48 -59 74 -45 24 12 21 42
-9 94 -21 36 -31 44 -55 44 -22 0 -30 -6 -35 -24z"/>
<path d="M9516 13605 c-15 -8 -67 -46 -115 -83 -47 -37 -99 -76 -114 -86 -27
-16 -238 -89 -243 -83 -2 1 3 20 10 42 17 49 12 62 -26 70 -24 6 -53 -4 -151
-53 -67 -33 -143 -68 -169 -77 -29 -10 -62 -33 -86 -60 -23 -23 -56 -48 -74
-54 -59 -20 -117 -93 -133 -171 -4 -19 -109 -215 -233 -435 -124 -220 -264
-469 -311 -554 -48 -84 -91 -154 -96 -155 -6 0 -48 67 -95 151 l-84 151 -94
-156 c-174 -290 -426 -658 -490 -715 -19 -18 -20 -17 -26 37 -7 55 -7 55 52
143 32 48 125 196 207 328 81 132 195 312 251 401 57 89 104 166 104 173 0 6
-6 11 -12 11 -14 0 -32 -27 -286 -435 -312 -501 -325 -520 -333 -497 -12 31
-47 363 -59 547 -5 88 -10 244 -10 347 0 168 -2 188 -16 188 -15 0 -16 -25
-11 -287 6 -308 22 -513 63 -793 14 -96 32 -221 39 -278 15 -119 13 -117 158
-238 135 -114 235 -173 363 -216 55 -18 91 -23 174 -23 97 0 110 3 171 31 229
108 459 497 674 1139 70 209 167 554 221 786 l49 207 110 57 c313 164 372 208
511 382 123 156 167 223 162 249 -4 24 -18 26 -52 9z"/>
<path d="M16907 13603 c-13 -21 -18 -113 -7 -132 12 -23 42 -28 58 -8 16 20
24 104 12 127 -10 19 -54 28 -63 13z"/>
<path d="M11486 13499 c-47 -11 -66 -25 -66 -49 0 -35 25 -44 86 -29 63 15 86
38 68 67 -13 21 -36 23 -88 11z"/>
<path d="M10282 13438 c-19 -19 -15 -36 20 -84 27 -39 36 -45 63 -42 45 4 45
38 0 94 -37 44 -61 54 -83 32z"/>
<path d="M11245 13434 c-22 -8 -46 -21 -54 -28 -17 -17 -6 -53 18 -61 19 -6
95 18 118 36 19 17 16 47 -6 59 -24 12 -26 12 -76 -6z"/>
<path d="M11016 13354 c-49 -18 -66 -32 -66 -54 0 -37 27 -45 86 -25 61 21 81
44 64 75 -12 23 -30 24 -84 4z"/>
<path d="M16899 13360 c-18 -11 -34 -104 -23 -133 6 -17 58 -25 67 -9 3 4 8
32 11 63 6 45 4 60 -9 73 -19 18 -24 19 -46 6z"/>
<path d="M10775 13252 c-54 -29 -65 -50 -39 -76 18 -19 38 -15 99 18 45 24 56
53 29 73 -24 18 -32 17 -89 -15z"/>
<path d="M10437 13253 c-17 -16 -4 -52 33 -88 29 -28 38 -44 34 -60 -3 -13 2
-27 15 -39 18 -16 21 -16 50 -2 39 21 41 20 41 -9 0 -28 51 -81 88 -91 26 -7
52 11 52 36 0 18 -79 90 -99 90 -7 0 -7 8 -1 24 13 35 -9 61 -45 53 -25 -4
-35 2 -73 44 -41 46 -76 61 -95 42z"/>
<path d="M16854 13109 c-3 -6 -9 -39 -12 -74 -4 -56 -3 -63 15 -69 28 -9 52 3
58 28 14 71 15 99 4 112 -14 17 -55 19 -65 3z"/>
<path d="M10335 13022 c-44 -31 -53 -66 -23 -86 14 -8 25 -7 50 7 66 36 81 52
74 81 -9 35 -48 34 -101 -2z"/>
<path d="M10810 12925 c-19 -23 -8 -47 42 -83 49 -34 80 -37 92 -7 9 24 -4 44
-50 75 -48 33 -66 37 -84 15z"/>
<path d="M10133 12888 c-46 -34 -55 -65 -28 -88 19 -15 45 -6 93 35 47 39 40
86 -11 85 -7 -1 -31 -15 -54 -32z"/>
<path d="M16810 12860 c-6 -11 -12 -43 -13 -71 -2 -58 18 -83 50 -63 21 13 44
115 31 138 -13 23 -55 20 -68 -4z"/>
<path d="M11023 12802 c-11 -7 -16 -26 -14 -49 1 -16 82 -63 108 -63 26 0 46
24 39 47 -3 10 -28 30 -55 46 -52 29 -60 31 -78 19z"/>
<path d="M9932 12732 c-46 -43 -48 -49 -29 -77 19 -25 52 -15 100 30 41 41 41
39 27 66 -16 30 -53 23 -98 -19z"/>
<path d="M11230 12675 c-19 -23 -3 -50 45 -73 53 -26 78 -28 95 -7 20 24 1 55
-47 76 -53 23 -76 24 -93 4z"/>
<path d="M16762 12627 c-6 -7 -17 -37 -24 -66 -10 -44 -9 -54 4 -67 28 -29 56
-9 74 54 18 61 12 85 -23 90 -11 2 -25 -3 -31 -11z"/>
<path d="M9751 12566 c-46 -47 -50 -79 -9 -92 15 -4 31 4 64 37 45 44 53 66
32 87 -21 21 -43 13 -87 -32z"/>
<path d="M11460 12585 c-20 -24 -7 -49 40 -72 57 -28 86 -29 100 -3 16 30 0
50 -56 71 -59 23 -68 23 -84 4z"/>
<path d="M11691 12506 c-25 -30 0 -61 63 -76 63 -15 89 -4 84 34 -6 39 -122
72 -147 42z"/>
<path d="M11933 12449 c-7 -7 -13 -21 -13 -30 0 -24 18 -35 75 -47 59 -12 85
-2 85 34 0 17 -8 27 -27 35 -47 18 -107 22 -120 8z"/>
<path d="M9581 12390 c-35 -43 -38 -76 -9 -94 25 -15 110 68 106 104 -2 20 -9
26 -33 28 -26 2 -36 -4 -64 -38z"/>
<path d="M12175 12404 c-38 -38 10 -76 90 -72 46 3 50 5 53 30 4 32 -13 43
-80 51 -36 5 -51 3 -63 -9z"/>
<path d="M16708 12403 c-14 -4 -34 -43 -51 -103 -7 -25 12 -50 39 -50 19 0 28
8 40 37 27 62 29 100 8 110 -11 5 -27 8 -36 6z"/>
<path d="M12421 12376 c-7 -8 -11 -25 -9 -38 3 -25 30 -35 95 -37 33 -1 45 4
53 19 16 30 -4 60 -39 60 -16 0 -42 3 -58 6 -20 4 -33 1 -42 -10z"/>
<path d="M9431 12201 c-41 -51 -40 -94 0 -99 21 -2 33 5 58 40 39 53 39 91 0
96 -21 2 -33 -6 -58 -37z"/>
<path d="M16590 12119 c-26 -63 -21 -99 15 -99 27 0 45 23 66 82 15 43 2 68
-36 68 -18 0 -27 -11 -45 -51z"/>
<path d="M9290 11988 c-35 -62 -35 -62 -14 -82 30 -31 53 -16 92 58 25 46 15
76 -23 76 -19 0 -31 -12 -55 -52z"/>
<path d="M16523 11932 c-11 -9 -28 -37 -38 -60 -22 -51 -13 -77 26 -77 18 0
29 11 47 45 27 54 28 86 3 100 -15 7 -24 6 -38 -8z"/>
<path d="M9198 11813 c-23 -27 -48 -79 -48 -102 0 -24 32 -44 55 -35 9 4 27
32 41 62 23 52 23 56 8 74 -21 23 -37 23 -56 1z"/>
<path d="M16383 11665 c-31 -62 -25 -90 18 -90 19 0 30 12 54 56 25 48 27 59
16 73 -7 9 -24 16 -37 16 -19 0 -30 -11 -51 -55z"/>
<path d="M9079 11553 c-26 -62 -22 -97 12 -101 31 -4 41 8 61 69 18 54 9 79
-28 79 -20 0 -29 -9 -45 -47z"/>
<path d="M16270 11463 c-33 -52 -35 -80 -7 -97 24 -15 45 0 76 57 29 51 23 79
-17 85 -16 3 -29 -8 -52 -45z"/>
<path d="M9015 11360 c-14 -23 -34 -106 -29 -122 7 -22 41 -33 59 -18 22 18
46 110 34 132 -10 19 -54 25 -64 8z"/>
<path d="M16140 11256 c-34 -51 -39 -92 -11 -101 28 -9 44 1 74 49 30 47 33
66 15 84 -22 22 -47 12 -78 -32z"/>
<path d="M8951 11112 c-5 -10 -13 -41 -16 -68 -8 -56 8 -81 44 -69 24 7 44 69
39 118 -2 26 -8 33 -30 35 -18 2 -30 -3 -37 -16z"/>
<path d="M16032 11093 c-17 -7 -72 -88 -72 -108 0 -8 12 -21 26 -27 25 -12 29
-10 60 27 40 47 51 79 34 100 -13 15 -25 17 -48 8z"/>
<path d="M8913 10878 c-17 -21 -25 -118 -12 -134 15 -18 43 -18 58 0 18 22 26
113 11 131 -15 18 -44 20 -57 3z"/>
<path d="M8896 10634 c-11 -10 -16 -34 -16 -74 0 -49 3 -61 20 -70 14 -8 26
-8 40 0 17 9 20 21 20 75 0 53 -3 66 -19 75 -25 13 -27 13 -45 -6z"/>
<path d="M8891 10382 c-5 -10 -6 -42 -3 -71 8 -61 29 -84 60 -65 13 9 17 24
15 74 -1 39 -7 66 -15 71 -22 14 -47 10 -57 -9z"/>
<path d="M8925 10144 c-12 -13 -14 -27 -9 -63 4 -25 11 -54 16 -63 11 -22 54
-23 66 -2 12 22 -7 116 -26 132 -21 16 -27 15 -47 -4z"/>
<path d="M10640 9930 l0 -230 300 0 300 0 0 230 0 230 -300 0 -300 0 0 -230z"/>
<path d="M11542 9935 l3 -225 1573 -3 1572 -2 0 228 0 227 -1575 0 -1575 0 2
-225z"/>
<path d="M8980 9902 l-23 -18 19 -60 c16 -51 23 -59 46 -62 40 -5 50 23 32 86
-19 63 -42 80 -74 54z"/>
<path d="M9050 9665 c-11 -13 -11 -23 -1 -53 23 -64 39 -84 69 -80 36 4 39 38
9 98 -24 49 -54 62 -77 35z"/>
<path d="M9158 9449 c-24 -14 -23 -33 9 -90 22 -41 31 -49 54 -49 44 0 48 38
12 97 -31 51 -47 59 -75 42z"/>
<path d="M10640 9210 l0 -230 2025 0 2025 0 0 230 0 230 -2025 0 -2025 0 0
-230z"/>
<path d="M9280 9230 c-23 -23 -19 -36 27 -97 25 -34 50 -42 71 -21 18 18 15
36 -18 82 -36 54 -54 62 -80 36z"/>
<path d="M9428 9039 c-25 -14 -22 -37 9 -82 33 -48 56 -61 83 -47 31 16 24 51
-19 98 -41 45 -46 47 -73 31z"/>
<path d="M9582 8848 c-19 -19 -15 -31 29 -77 31 -32 47 -41 67 -39 43 5 41 43
-4 89 -39 40 -70 49 -92 27z"/>
<path d="M13490 7910 l0 -230 1410 0 1410 0 1 213 c0 116 2 220 4 230 3 16
-69 17 -1411 17 l-1414 0 0 -230z"/>
<path d="M11325 7412 c-125 -43 -213 -121 -271 -238 -33 -66 -38 -84 -42 -172
-5 -113 15 -189 75 -279 175 -265 571 -262 755 4 139 203 77 499 -133 634
-105 67 -273 90 -384 51z m217 -182 c102 -29 182 -141 182 -253 -1 -231 -286
-348 -446 -183 -49 50 -71 99 -76 169 -14 179 161 316 340 267z"/>
<path d="M13490 7010 l0 -230 1413 0 1412 0 0 230 0 230 -1412 0 -1413 0 0
-230z"/>
<path d="M13508 6343 c-17 -4 -18 -24 -18 -229 l0 -224 1413 0 1412 0 -2 221
c-2 121 -5 224 -8 229 -6 9 -2764 12 -2797 3z"/>
<path d="M9347 6306 c-219 -61 -285 -338 -117 -490 59 -54 102 -69 190 -70 60
-1 85 4 124 23 106 52 161 141 161 261 0 86 -22 139 -82 202 -66 68 -184 100
-276 74z m154 -132 c36 -18 66 -58 81 -105 34 -114 -89 -234 -204 -200 -85 26
-140 118 -119 199 29 106 144 157 242 106z"/>
<path d="M10640 4880 l0 -230 2838 0 2837 0 -2 217 c-2 120 -5 224 -8 230 -3
10 -600 13 -2835 13 l-2830 0 0 -230z"/>
<path d="M10640 3890 l0 -230 2838 0 2837 0 0 230 0 230 -2837 0 -2838 0 0
-230z"/>
<path d="M10640 2900 l0 -230 2838 0 2837 0 0 230 0 230 -2837 0 -2838 0 0
-230z"/>
</g>
</svg>
