<?xml version="1.0" standalone="no"?>
<!DOCTYPE svg PUBLIC "-//W3C//DTD SVG 20010904//EN"
 "http://www.w3.org/TR/2001/REC-SVG-20010904/DTD/svg10.dtd">
<svg version="1.0" xmlns="http://www.w3.org/2000/svg"
 width="8185.000000pt" height="5512.000000pt" viewBox="0 0 8185.000000 5512.000000"
 preserveAspectRatio="xMidYMid meet">

<g transform="translate(0.000000,5512.000000) scale(0.100000,-0.100000)"
fill="#000000" stroke="none">
<path d="M24970 51304 c-685 -86 -1118 -538 -1215 -1273 -17 -123 -19 -445 -5
-576 83 -746 460 -1174 1109 -1261 321 -42 722 4 1029 118 l52 19 0 269 0 269
-47 -15 c-132 -43 -340 -97 -443 -116 -170 -31 -395 -31 -510 0 -280 76 -449
288 -515 647 -22 120 -31 441 -16 573 51 435 246 713 561 798 101 27 309 25
425 -5 88 -22 331 -114 409 -153 21 -11 42 -16 47 -11 4 4 52 121 107 260 l99
252 -56 25 c-169 76 -334 127 -525 163 -79 14 -429 26 -506 17z"/>
<path d="M45640 51304 c-434 -55 -712 -262 -810 -604 -31 -107 -39 -316 -15
-431 45 -225 182 -417 404 -564 53 -35 223 -127 378 -204 280 -141 370 -196
437 -268 71 -76 97 -169 76 -269 -39 -185 -196 -264 -500 -251 -208 9 -442 71
-726 192 l-124 53 2 -301 3 -301 109 -43 c227 -89 404 -123 686 -130 309 -8
508 26 710 123 221 106 374 275 439 486 33 109 45 258 31 379 -28 246 -129
417 -337 572 -122 90 -211 141 -492 280 -270 134 -336 173 -398 238 -70 72
-95 151 -82 255 34 263 351 334 822 184 67 -22 156 -53 196 -70 41 -16 75 -29
76 -28 1 2 39 93 85 203 45 110 91 220 101 244 11 25 16 48 12 51 -14 13 -213
87 -333 124 -198 62 -291 77 -515 81 -110 2 -216 1 -235 -1z"/>
<path d="M57080 51303 c-278 -36 -489 -134 -638 -297 -108 -119 -172 -270
-192 -454 -31 -283 51 -516 250 -713 106 -106 223 -179 525 -328 275 -137 357
-184 431 -253 72 -66 97 -117 102 -208 6 -105 -15 -168 -78 -230 -83 -84 -203
-115 -410 -107 -212 8 -428 63 -701 176 -80 34 -149 61 -152 61 -4 0 -6 -134
-5 -297 l3 -298 91 -37 c121 -49 241 -83 388 -110 167 -31 548 -33 701 -4 256
48 439 139 586 293 139 145 198 297 206 529 6 163 -9 262 -59 382 -93 223
-270 366 -758 609 -319 159 -406 217 -457 302 -77 129 -40 307 81 390 76 52
137 66 281 65 180 -1 382 -47 605 -138 47 -19 88 -31 92 -28 3 4 31 68 62 142
30 74 75 183 100 242 l45 107 -72 29 c-168 70 -362 129 -518 158 -82 16 -433
27 -509 17z"/>
<path d="M32505 51268 c-11 -31 -323 -921 -380 -1083 -104 -296 -524 -1494
-555 -1580 -95 -267 -130 -368 -130 -376 0 -5 141 -9 343 -9 l344 0 110 363
110 362 557 3 556 2 10 -22 c14 -36 210 -684 210 -697 0 -8 94 -11 350 -11
l350 0 -15 38 c-13 33 -89 250 -355 1007 -49 138 -99 282 -113 320 -14 39
-150 423 -302 855 -153 432 -282 797 -287 813 l-10 27 -394 0 c-307 0 -396 -3
-399 -12z m415 -492 c0 -18 37 -148 110 -381 32 -104 109 -350 169 -546 61
-196 111 -359 111 -363 0 -3 -180 -6 -400 -6 -220 0 -400 3 -400 8 0 4 7 26
15 50 25 70 310 1016 345 1144 18 65 36 115 41 112 5 -3 9 -11 9 -18z"/>
<path d="M26600 49746 l0 -1526 320 0 320 0 0 585 0 585 174 0 174 0 40 -62
c42 -66 467 -749 606 -975 l81 -132 358 -1 357 0 -114 168 c-181 264 -776
1150 -776 1155 0 3 34 23 75 46 234 126 392 311 457 537 20 69 23 101 23 249
-1 211 -26 319 -106 457 -107 182 -283 304 -541 373 -199 53 -260 57 -875 62
l-573 5 0 -1526z m1130 970 c154 -37 246 -101 293 -205 15 -34 22 -73 25 -147
6 -158 -28 -252 -122 -330 -99 -83 -223 -113 -493 -121 l-193 -6 0 418 0 417
208 -4 c151 -3 227 -9 282 -22z"/>
<path d="M29420 49745 l0 -1525 880 0 880 0 0 265 0 265 -560 0 -560 0 0 395
0 395 520 0 520 0 0 265 0 265 -520 0 -520 0 0 335 0 335 560 0 560 0 0 265 0
265 -880 0 -880 0 0 -1525z"/>
<path d="M34470 51000 l0 -270 415 0 415 0 0 -1255 0 -1255 320 0 320 0 0
1255 0 1255 415 0 415 0 0 270 0 270 -1150 0 -1150 0 0 -270z"/>
<path d="M37250 49745 l0 -1525 320 0 320 0 0 1525 0 1525 -320 0 -320 0 0
-1525z"/>
<path d="M38280 51267 c0 -2 58 -174 129 -383 71 -208 168 -494 216 -634 91
-270 230 -679 390 -1150 54 -157 142 -419 197 -582 l100 -298 352 0 352 0 103
303 c382 1123 731 2150 867 2551 35 104 64 191 64 193 0 2 -145 3 -323 3
l-323 0 -292 -917 c-299 -942 -360 -1147 -413 -1408 -17 -82 -32 -151 -34
-153 -1 -1 -8 26 -14 60 -19 97 -97 417 -132 536 -25 88 -259 832 -526 1672
-31 96 -58 183 -60 193 -5 16 -29 17 -329 17 -178 0 -324 -1 -324 -3z"/>
<path d="M41440 49745 l0 -1525 880 0 880 0 0 265 0 265 -555 0 -555 0 0 395
0 395 515 0 515 0 0 265 0 265 -515 0 -515 0 0 335 0 335 555 0 555 0 0 265 0
265 -880 0 -880 0 0 -1525z"/>
<path d="M47310 49745 l0 -1525 320 0 320 0 0 544 0 545 125 91 c69 50 132 93
139 96 13 5 244 -358 716 -1123 l95 -153 362 0 c200 0 363 2 363 4 0 3 -38 64
-84 138 -143 226 -163 257 -523 828 -460 730 -453 718 -453 728 0 9 115 159
265 347 71 89 205 259 449 570 70 88 173 219 231 292 58 72 105 134 105 137 0
3 -159 6 -353 6 l-354 0 -89 -112 c-49 -62 -230 -290 -403 -507 -285 -358
-357 -452 -531 -698 l-55 -77 -3 697 -2 697 -320 0 -320 0 0 -1525z"/>
<path d="M50150 49745 l0 -1525 320 0 320 0 0 1525 0 1525 -320 0 -320 0 0
-1525z"/>
<path d="M51560 49745 l0 -1525 940 0 940 0 0 265 0 265 -615 0 -615 0 0 1260
0 1260 -325 0 -325 0 0 -1525z"/>
<path d="M53980 49745 l0 -1525 940 0 940 0 0 265 0 265 -620 0 -620 0 0 1260
0 1260 -320 0 -320 0 0 -1525z"/>
<path d="M29190 40075 l0 -1215 5585 0 5585 0 0 1215 0 1215 -5585 0 -5585 0
0 -1215z m5772 395 c160 -60 238 -217 225 -449 -8 -152 -57 -256 -151 -321
-77 -53 -119 -63 -246 -64 -96 0 -125 4 -172 23 -110 43 -190 142 -217 269
-26 126 -6 313 44 398 47 80 137 143 238 164 69 15 215 5 279 -20z m-1562
-403 c101 -287 144 -420 136 -423 -7 -3 -53 -4 -102 -2 l-89 3 -29 98 -30 97
-147 0 -147 0 -32 -100 -31 -100 -100 0 c-77 0 -100 3 -97 13 3 6 69 198 149
425 l144 412 114 -2 113 -3 148 -418z m604 413 c145 -17 212 -60 237 -153 22
-82 -15 -193 -75 -224 l-30 -15 30 -13 c60 -25 104 -103 104 -185 0 -124 -84
-213 -224 -239 -33 -6 -138 -11 -233 -11 l-173 0 0 425 0 425 138 0 c75 0 177
-5 226 -10z m1528 -282 c3 -269 5 -296 23 -333 25 -50 72 -75 140 -75 66 0
115 26 140 76 18 36 20 63 23 332 l4 292 89 0 89 0 0 -304 c0 -255 -3 -312
-17 -355 -43 -134 -190 -213 -370 -197 -106 9 -173 37 -227 98 -72 79 -76 103
-76 455 l0 303 89 0 90 0 3 -292z m1258 212 l0 -80 -110 0 -110 0 0 -345 0
-345 -95 0 -95 0 0 345 0 345 -115 0 -115 0 0 80 0 80 320 0 320 0 0 -80z"/>
<path d="M34705 40325 c-45 -23 -91 -80 -106 -133 -22 -75 -17 -217 10 -277
28 -63 46 -83 96 -106 81 -37 188 -14 238 52 35 48 50 110 49 214 0 134 -40
217 -119 251 -43 18 -130 18 -168 -1z"/>
<path d="M33091 40172 c-24 -81 -45 -153 -48 -159 -4 -10 20 -13 97 -13 78 0
101 3 97 13 -2 6 -24 75 -47 152 -24 77 -46 143 -49 147 -3 4 -26 -59 -50
-140z"/>
<path d="M33830 40245 l0 -85 84 0 c92 0 128 17 140 64 17 68 -39 106 -154
106 l-70 0 0 -85z"/>
<path d="M33830 39906 l0 -106 75 0 c118 0 165 29 167 101 1 39 -18 74 -50 89
-14 6 -63 14 -109 17 l-83 6 0 -107z"/>
<path d="M42170 40075 l0 -1215 5590 0 5590 0 0 1215 0 1215 -5590 0 -5590 0
0 -1215z m10990 0 l0 -1025 -5400 0 -5400 0 0 1025 0 1025 5400 0 5400 0 0
-1025z"/>
<path d="M44348 40476 c-175 -50 -258 -183 -258 -411 0 -140 29 -235 95 -313
113 -135 419 -150 561 -28 48 41 98 131 113 204 14 66 14 222 0 281 -27 119
-103 212 -208 252 -70 28 -231 35 -303 15z m203 -136 c50 -14 103 -71 123
-131 22 -69 22 -220 -1 -288 -10 -34 -29 -63 -54 -86 -111 -100 -287 -55 -332
86 -22 68 -23 219 -1 287 18 56 71 113 119 130 39 14 101 14 146 2z"/>
<path d="M47147 40479 c-51 -12 -87 -31 -121 -66 -41 -40 -57 -86 -57 -158 0
-114 51 -175 211 -255 111 -55 140 -82 140 -132 0 -104 -127 -116 -342 -33
-16 6 -18 -1 -18 -72 l0 -80 63 -19 c45 -14 92 -19 173 -19 104 0 114 2 170
31 80 42 115 93 122 180 10 126 -35 186 -207 274 -95 49 -151 95 -151 125 0
53 50 95 112 95 30 0 137 -26 178 -44 11 -4 22 11 42 60 l26 66 -34 14 c-97
41 -219 54 -307 33z"/>
<path d="M50450 40474 c-56 -15 -133 -59 -160 -91 -70 -83 -100 -164 -107
-293 -12 -225 74 -381 240 -432 58 -17 85 -20 166 -15 53 3 117 13 144 22 l47
17 0 70 c0 68 -1 70 -22 64 -174 -51 -265 -45 -333 21 -50 49 -68 119 -63 247
3 89 7 108 33 156 35 64 79 96 143 106 43 6 80 -1 203 -42 11 -4 22 11 41 61
l26 65 -28 15 c-82 42 -231 55 -330 29z"/>
<path d="M45052 40158 c3 -310 4 -325 25 -364 27 -50 82 -100 142 -128 38 -17
65 -21 161 -21 103 0 121 3 170 26 74 35 111 68 140 125 25 49 25 51 28 367
l3 317 -85 0 -85 0 -3 -304 c-3 -291 -4 -306 -24 -333 -30 -41 -71 -58 -139
-58 -68 0 -109 17 -139 58 -20 27 -21 42 -24 333 l-3 304 -85 0 -85 0 3 -322z"/>
<path d="M45930 40066 l0 -416 85 0 85 0 0 160 0 160 53 0 52 -1 98 -159 98
-160 95 0 94 0 -122 182 c-74 111 -117 183 -109 186 32 11 97 72 118 111 48
91 23 228 -50 284 -64 49 -118 60 -314 65 l-183 4 0 -416z m314 263 c21 -6 50
-22 63 -36 22 -21 25 -31 21 -74 -8 -81 -52 -109 -170 -109 l-58 0 0 115 0
115 53 0 c28 0 69 -5 91 -11z"/>
<path d="M47650 40065 l0 -415 235 0 235 0 0 70 0 70 -150 0 -150 0 0 110 0
110 140 0 140 0 0 70 0 70 -140 0 -140 0 0 95 0 95 150 0 150 0 0 70 0 70
-235 0 -235 0 0 -415z"/>
<path d="M48300 40065 l0 -415 85 0 85 0 0 161 0 160 52 -3 53 -3 98 -157 98
-158 94 0 94 0 -121 181 c-95 142 -118 183 -107 190 8 5 17 9 21 9 4 0 24 15
44 32 49 43 74 100 74 169 0 101 -34 166 -109 203 -68 35 -145 46 -313 46
l-148 0 0 -415z m312 265 c52 -15 78 -40 85 -82 13 -87 -33 -129 -149 -136
l-78 -5 0 117 0 116 53 0 c28 0 69 -5 89 -10z"/>
<path d="M48975 40461 c3 -10 66 -196 139 -413 l134 -393 96 -3 c53 -1 96 -1
96 1 0 2 25 78 56 168 31 90 92 268 135 394 42 127 81 238 84 248 7 16 1 18
-81 15 l-89 -3 -73 -230 c-40 -126 -85 -276 -100 -333 l-28 -103 -37 133 c-20
73 -65 223 -100 333 l-64 200 -87 3 c-83 3 -87 2 -81 -17z"/>
<path d="M49830 40065 l0 -415 85 0 85 0 0 415 0 415 -85 0 -85 0 0 -415z"/>
<path d="M50960 40065 l0 -415 240 0 240 0 0 70 0 70 -155 0 -155 0 0 110 0
110 140 0 140 0 0 70 0 70 -140 0 -140 0 0 95 0 95 155 0 155 0 0 70 0 70
-240 0 -240 0 0 -415z"/>
<path d="M74490 33400 l0 -560 430 0 430 0 0 -342 0 -343 -123 -29 c-451 -106
-949 -337 -1328 -617 -37 -27 -70 -49 -75 -49 -5 0 -72 62 -148 139 -172 172
-196 186 -326 186 -80 0 -102 -4 -140 -24 -63 -33 -489 -458 -527 -525 -25
-46 -28 -60 -28 -146 0 -128 13 -150 198 -337 l150 -152 -60 -93 c-348 -540
-542 -1088 -609 -1718 -18 -171 -20 -560 -4 -735 154 -1691 1407 -3086 3065
-3414 290 -58 388 -66 760 -66 371 1 461 9 754 66 1522 299 2735 1530 3015
3059 86 469 84 972 -5 1430 -98 505 -289 972 -571 1394 l-79 119 124 126 c158
159 181 201 181 321 1 132 -19 161 -287 427 -134 133 -240 230 -267 244 -38
20 -60 24 -140 24 -130 0 -162 -17 -321 -173 l-127 -123 -84 60 c-351 251
-819 464 -1258 575 l-135 33 -3 342 -2 341 430 0 430 0 0 560 0 560 -1660 0
-1660 0 0 -560z m3030 0 l0 -270 -1370 0 -1370 0 0 270 0 270 1370 0 1370 0 0
-270z m-860 -876 l0 -316 -62 6 c-319 33 -570 33 -890 0 l-68 -7 0 317 0 316
510 0 510 0 0 -316z m-82 -608 c804 -105 1506 -449 2072 -1016 570 -569 913
-1273 1016 -2085 23 -175 26 -624 5 -790 -118 -979 -589 -1821 -1352 -2417
-1189 -930 -2861 -993 -4119 -155 -738 492 -1265 1233 -1479 2084 -38 149 -75
359 -92 518 -19 175 -16 558 5 735 98 822 446 1541 1026 2120 584 583 1349
939 2190 1019 141 14 583 6 728 -13z m-3098 -531 l116 -116 -134 -132 c-73
-73 -165 -169 -204 -215 l-71 -83 -126 125 -126 126 205 205 c113 113 209 205
215 205 5 0 62 -52 125 -115z m5610 -90 l205 -205 -105 -105 -105 -105 -84 92
c-99 108 -157 167 -260 262 l-74 68 99 99 c54 54 103 99 109 99 6 0 102 -92
215 -205z"/>
<path d="M76106 30710 c-15 -5 -37 -17 -48 -27 -45 -41 -48 -59 -48 -323 0
-284 1 -290 73 -330 76 -43 171 -9 202 73 14 37 16 79 13 280 -3 220 -4 237
-24 263 -43 58 -107 83 -168 64z"/>
<path d="M74775 29711 c-40 -24 -63 -60 -70 -108 -12 -75 6 -93 535 -565 272
-242 494 -446 494 -452 -1 -6 -9 -38 -18 -71 -42 -157 1 -313 118 -431 145
-145 358 -175 538 -77 69 37 153 130 191 210 30 64 32 74 32 183 0 101 -3 122
-26 176 l-26 61 254 274 c140 151 263 288 274 304 39 61 17 160 -45 200 -38
25 -95 28 -138 8 -23 -12 -131 -120 -300 -303 -241 -262 -265 -285 -293 -283
-194 16 -215 16 -286 -7 l-70 -23 -32 30 c-157 148 -984 876 -1003 884 -40 15
-96 11 -129 -10z m1456 -1174 c123 -83 99 -246 -42 -289 -106 -31 -216 73
-195 186 19 103 152 160 237 103z"/>
<path d="M73920 28532 c-101 -50 -108 -191 -14 -253 27 -17 51 -19 282 -19
280 0 296 3 332 63 28 45 26 115 -3 158 -43 65 -64 69 -327 69 -204 0 -240 -2
-270 -18z"/>
<path d="M77865 28543 c-88 -22 -131 -130 -84 -213 39 -68 47 -70 329 -70 207
0 256 3 281 15 71 37 94 154 42 216 -47 55 -68 59 -320 58 -125 -1 -237 -4
-248 -6z"/>
<path d="M76073 26770 c-60 -36 -63 -52 -63 -330 0 -278 2 -291 63 -329 66
-41 153 -22 199 41 23 32 23 37 23 288 0 230 -2 259 -18 283 -42 65 -139 87
-204 47z"/>
<path d="M59975 33395 c-47 -17 -82 -56 -92 -105 -4 -19 -8 -78 -8 -130 0
-125 15 -481 21 -491 2 -4 0 -10 -5 -13 -5 -4 -65 36 -133 87 -337 255 -551
356 -820 385 -104 11 -160 3 -194 -29 -55 -51 -58 -67 -58 -289 0 -225 11
-356 50 -587 46 -279 133 -589 230 -822 24 -57 41 -108 37 -111 -5 -4 -91 -28
-193 -55 -404 -104 -574 -155 -629 -188 -64 -38 -143 -122 -190 -201 -94 -157
-165 -439 -190 -751 -9 -115 -7 -547 4 -650 51 -492 151 -829 294 -986 68 -76
128 -107 234 -120 349 -42 685 -258 1449 -928 3 -3 -2 -62 -12 -131 -23 -154
-25 -332 -5 -419 39 -163 136 -282 290 -356 50 -24 123 -51 163 -62 l74 -18
-6 -40 c-4 -22 -9 -101 -13 -176 -10 -226 33 -359 155 -478 108 -106 231 -156
512 -208 135 -25 472 -25 630 0 405 63 548 154 709 450 27 49 49 77 59 77 9 0
49 -7 87 -14 204 -42 621 -65 854 -46 250 20 558 71 778 129 l71 18 63 -106
c34 -58 77 -131 95 -161 104 -173 257 -272 494 -319 346 -68 622 -67 930 3
134 31 203 57 279 106 230 149 286 364 213 810 -60 358 -67 484 -37 617 16 71
17 72 122 175 450 441 730 933 868 1521 19 82 38 154 43 160 298 373 422 577
508 838 23 69 28 102 28 189 1 94 -2 111 -26 162 -48 104 -145 177 -283 213
-33 9 -115 19 -182 22 l-122 6 -12 51 c-6 28 -34 119 -62 201 -191 576 -512
1093 -941 1520 -422 420 -933 724 -1566 933 -564 187 -1190 271 -1785 242
-640 -32 -1245 -170 -1740 -399 l-60 -27 -140 92 c-238 155 -692 402 -770 417
-16 4 -48 0 -70 -8z m3514 -390 c828 -92 1582 -383 2141 -826 130 -103 420
-392 522 -519 367 -462 612 -978 723 -1525 205 -1008 -72 -1953 -775 -2644
-424 -416 -955 -715 -1730 -972 -325 -107 -610 -176 -895 -214 -160 -22 -558
-31 -722 -16 -620 56 -1213 276 -1982 734 -271 161 -388 253 -921 716 -669
582 -1012 800 -1378 876 -65 13 -76 13 -102 0 -59 -30 -116 -8 -171 67 -45 62
-63 102 -99 210 -65 202 -98 430 -107 744 -12 432 44 820 153 1053 73 156 141
204 229 160 l45 -22 132 36 c73 20 255 68 403 107 414 108 555 159 685 245 76
50 212 188 285 288 l50 69 8 -44 c41 -224 82 -350 179 -540 79 -157 162 -270
278 -381 103 -99 200 -159 315 -193 87 -26 231 -24 314 5 285 99 575 347 716
614 134 255 157 543 64 819 -79 238 -211 433 -461 681 -88 87 -158 160 -156
162 2 2 55 24 119 49 350 135 779 232 1179 266 69 6 143 12 165 14 99 10 659
-4 794 -19z m-3014 -153 c729 -431 1135 -909 1135 -1337 0 -114 -19 -203 -63
-298 -94 -202 -261 -371 -475 -478 -71 -35 -100 -44 -155 -47 -63 -4 -74 -1
-145 33 -168 84 -339 318 -440 605 -40 115 -49 162 -72 400 -30 316 -89 1146
-90 1273 0 16 15 10 98 -34 53 -29 147 -81 207 -117z m-1291 -92 c143 -64 308
-176 604 -411 70 -56 128 -103 130 -104 1 -1 7 -47 12 -101 l9 -99 -114 -170
c-135 -202 -226 -317 -296 -376 -57 -47 -219 -133 -230 -121 -16 16 -99 226
-143 359 -106 324 -176 721 -176 993 l0 99 68 -19 c37 -10 99 -33 136 -50z
m8119 -2690 c78 -11 121 -31 138 -61 25 -48 -35 -228 -138 -412 -30 -54 -56
-97 -58 -95 -2 2 -8 82 -15 178 -6 96 -17 220 -25 274 -8 55 -15 105 -15 113
0 15 22 16 113 3z m-7141 -2983 c57 -45 125 -98 151 -117 l49 -35 -7 -80 c-11
-137 -11 -138 -53 -130 -55 10 -167 63 -196 94 -34 35 -55 89 -62 160 -6 53 2
191 11 191 2 0 50 -37 107 -83z m5725 -502 c14 -93 32 -213 40 -265 29 -186 8
-325 -59 -387 -82 -77 -349 -137 -613 -137 -152 0 -253 11 -425 45 -178 36
-240 84 -345 269 l-65 115 93 31 c327 110 671 255 911 385 131 71 341 198 401
243 19 14 20 13 28 -57 4 -40 20 -148 34 -242z m-5070 69 c345 -196 700 -358
1029 -469 l182 -61 -35 -58 c-92 -157 -154 -196 -373 -236 -275 -49 -487 -48
-733 4 -186 39 -251 76 -294 165 -41 83 -39 189 12 504 22 136 41 247 42 247
2 0 78 -43 170 -96z"/>
<path d="M46570 33043 c-19 -10 -45 -33 -57 -52 l-23 -34 0 -487 0 -487 23
-34 c62 -94 203 -86 251 15 14 30 16 91 16 508 0 431 -2 476 -18 507 -36 71
-123 100 -192 64z"/>
<path d="M38650 32507 c-14 -7 -58 -39 -99 -70 -296 -229 -723 -411 -1106
-471 -164 -25 -215 -28 -680 -41 -110 -3 -258 -8 -330 -10 -71 -3 -206 -7
-300 -10 -192 -7 -709 -32 -800 -40 -33 -2 -98 -7 -145 -10 -201 -14 -700 -57
-875 -76 -1593 -171 -2611 -540 -3121 -1130 -379 -439 -572 -866 -656 -1451
-19 -130 -22 -199 -23 -458 0 -265 3 -327 23 -475 52 -379 140 -740 486 -1999
36 -132 66 -242 66 -246 0 -4 -17 -10 -39 -14 -65 -10 -193 -81 -264 -146
-176 -162 -270 -367 -292 -640 -12 -150 8 -245 176 -835 253 -883 280 -964
368 -1093 90 -133 228 -249 339 -286 l49 -17 7 -77 c32 -356 201 -1032 336
-1343 148 -342 441 -776 760 -1127 61 -67 109 -126 107 -130 -3 -4 -8 -101
-12 -217 -3 -115 -8 -219 -10 -230 -2 -11 -7 -108 -10 -215 -4 -107 -8 -215
-10 -240 -2 -25 -6 -112 -10 -195 -3 -82 -7 -188 -10 -235 -2 -47 -7 -143 -10
-215 -8 -160 -19 -246 -47 -350 -107 -403 -415 -735 -814 -878 -39 -14 -295
-73 -570 -132 -274 -58 -908 -193 -1409 -299 -500 -107 -955 -202 -1010 -211
-247 -42 -565 -133 -774 -222 -827 -353 -1407 -1027 -1685 -1962 -64 -214 -82
-304 -226 -1106 -71 -401 -137 -766 -145 -810 -8 -44 -89 -496 -180 -1005 -90
-509 -169 -947 -174 -975 -6 -27 -22 -117 -36 -200 -28 -156 -65 -362 -90
-500 -12 -64 -242 -1351 -430 -2405 -19 -107 -42 -231 -50 -275 -8 -44 -89
-496 -180 -1005 -90 -509 -169 -947 -174 -975 -6 -27 -22 -117 -36 -200 -24
-137 -49 -276 -91 -505 -8 -47 -34 -190 -57 -319 l-42 -233 -80 -29 c-128 -46
-649 -212 -920 -293 -642 -192 -1460 -417 -2280 -626 -132 -34 -248 -63 -257
-66 -14 -4 -29 19 -74 107 -209 417 -497 769 -793 968 -117 80 -299 156 -431
181 -109 21 -369 39 -570 40 l-205 0 -95 71 c-401 300 -646 406 -916 397 l-91
-3 -808 950 c-1133 1332 -1089 1281 -1149 1321 -79 52 -150 76 -246 81 -150 9
-271 -36 -375 -141 -152 -152 -187 -374 -90 -565 30 -60 144 -198 640 -781
209 -245 585 -687 836 -982 l457 -536 -14 -69 c-29 -135 -45 -270 -69 -558
-17 -210 -26 -919 -16 -1245 11 -367 18 -437 65 -615 14 -49 33 -129 44 -177
16 -70 51 -167 98 -273 3 -7 -416 -10 -1245 -10 l-1250 0 -28 -21 c-15 -11
-38 -36 -50 -54 l-23 -33 0 -618 0 -619 145 0 145 0 0 525 0 525 3338 -2 3337
-3 80 -23 c89 -25 215 -82 299 -136 74 -47 204 -172 265 -255 123 -166 221
-427 221 -593 l0 -38 155 0 155 0 0 39 c0 98 58 309 118 426 71 141 197 292
322 387 83 63 242 142 345 171 l80 22 3338 3 3337 2 0 -525 0 -525 145 0 145
0 0 624 0 623 -23 34 c-12 19 -38 42 -57 51 -33 17 -131 18 -1613 18 l-1577 0
2 4658 3 4657 22 76 c82 287 269 483 528 551 41 11 1464 13 8050 13 l8000 0
75 -23 c99 -31 157 -62 227 -119 137 -112 222 -244 269 -418 19 -68 19 -209
19 -5360 l0 -5290 -28 -48 -28 -47 168 2 168 3 11 50 c9 37 12 1264 13 4899 1
2667 2 4851 4 4852 4 4 1934 -7395 1952 -7481 86 -426 83 -912 -10 -1281 -76
-302 -190 -511 -384 -704 -146 -145 -289 -236 -486 -309 l-80 -30 317 -1 317
0 68 58 c333 287 539 726 598 1275 17 161 17 526 -1 702 -25 252 -52 369 -300
1320 -135 517 -265 1014 -289 1105 -46 180 -934 3590 -985 3785 -17 66 -110
419 -206 785 -454 1727 -1386 5308 -1410 5415 -72 327 -204 682 -351 950 -317
578 -789 1010 -1383 1268 -224 97 -545 191 -795 233 -90 14 -499 100 -2329
490 -323 69 -620 137 -660 151 -398 143 -691 456 -810 865 -37 129 -43 188
-61 593 -6 134 -12 271 -20 420 -3 55 -12 260 -20 455 -9 195 -17 379 -19 409
l-4 54 75 80 c362 387 736 973 862 1352 77 231 171 632 231 982 17 96 33 179
36 184 3 5 14 9 24 9 35 0 149 48 207 88 105 71 212 200 280 337 29 58 135
404 302 990 116 408 150 540 160 630 39 347 -106 692 -362 862 -70 46 -182 92
-227 93 -56 1 -55 13 7 106 577 864 1151 2122 1327 2909 29 127 62 313 71 400
4 33 8 71 11 84 11 74 19 271 17 456 -5 700 -218 1391 -604 1960 -100 147
-220 289 -260 305 -44 19 -107 15 -139 -8 -41 -31 -70 -81 -70 -124 0 -22 -5
-60 -11 -86 -17 -75 -123 -280 -193 -372 -63 -85 -236 -284 -241 -278 -1 2 12
62 30 133 54 216 68 332 71 605 4 339 -8 411 -77 463 -34 25 -106 32 -139 14z
m-1876 -899 c-11 -13 -70 -81 -130 -153 -221 -263 -622 -705 -928 -1025 -379
-394 -578 -589 -1351 -1321 l-270 -256 -175 -76 -175 -77 -200 -25 c-629 -79
-1042 -213 -1405 -454 -313 -208 -557 -488 -660 -754 -42 -108 -128 -453 -175
-702 -21 -110 -41 -203 -45 -207 -7 -9 -32 82 -189 677 -217 820 -261 1076
-261 1517 0 393 55 702 182 1021 174 436 503 828 884 1053 791 467 2128 708
4349 784 290 10 379 13 514 18 l54 2 -19 -22z m2505 -373 c35 -221 45 -351 44
-590 0 -344 -39 -642 -128 -989 -121 -471 -424 -1210 -746 -1820 -61 -116
-116 -217 -121 -224 -8 -9 -22 5 -56 55 -103 155 -262 322 -412 434 -276 205
-724 396 -1115 474 -449 89 -1314 163 -1945 166 -102 0 -178 3 -170 6 8 3 168
69 355 145 630 259 938 395 1529 675 156 74 755 375 881 443 727 391 1108 639
1430 930 166 150 325 319 395 419 30 43 33 37 59 -124z m-3824 -2814 c713 -47
1201 -114 1475 -203 561 -182 885 -397 1102 -733 239 -370 397 -902 417 -1410
6 -150 10 -185 26 -212 19 -32 18 -35 -24 -434 -73 -693 -252 -2234 -291
-2509 -46 -318 -153 -797 -235 -1045 -151 -460 -622 -1129 -1078 -1532 -339
-299 -670 -494 -1057 -623 -232 -77 -440 -116 -700 -130 -1009 -52 -1941 452
-2663 1443 -185 253 -351 551 -435 777 -132 356 -254 914 -277 1265 -3 50 -21
214 -40 365 -19 151 -46 372 -60 490 -14 118 -28 231 -30 250 -12 96 -135
1187 -156 1392 -11 104 -10 122 4 155 9 21 21 83 27 138 37 329 168 1045 236
1295 67 241 116 338 261 511 165 197 478 407 781 524 318 122 848 206 1522
239 145 7 1037 -3 1195 -13z m-4331 -2768 c35 -351 231 -2057 261 -2278 l6
-40 -53 56 c-104 108 -126 169 -387 1085 -150 528 -152 537 -158 655 -13 252
92 469 271 566 23 12 44 22 47 23 4 0 10 -30 13 -67z m7753 -29 c30 -14 78
-53 112 -90 135 -144 191 -369 146 -588 -38 -181 -391 -1389 -428 -1461 -39
-77 -110 -167 -163 -204 l-47 -34 6 49 c34 250 195 1665 263 2297 6 54 7 57
33 57 15 0 50 -12 78 -26z m-5775 -5701 c65 -48 166 -119 225 -156 145 -92
459 -245 618 -302 656 -235 1392 -231 2042 11 310 115 620 292 892 509 52 41
96 73 98 71 2 -2 19 -333 38 -737 20 -424 41 -772 50 -824 81 -500 398 -930
850 -1155 195 -97 185 -94 967 -261 l438 -93 6 -34 c4 -20 4 -132 1 -251 -16
-588 -159 -1159 -427 -1706 -617 -1262 -1832 -2147 -3216 -2345 -222 -31 -353
-40 -619 -40 -342 -1 -539 18 -850 81 -1042 209 -1971 808 -2608 1682 -259
354 -490 814 -617 1227 -70 229 -129 498 -156 710 -3 30 -8 62 -9 71 -8 39
-26 369 -28 502 -2 124 0 148 13 152 8 2 188 41 400 85 212 45 432 94 490 110
260 71 492 204 684 395 238 236 392 529 451 860 9 47 27 350 45 745 16 366 32
702 36 748 l6 83 31 -25 c18 -14 85 -65 149 -113z m-2594 -3210 c18 -391 53
-633 137 -968 324 -1276 1196 -2359 2377 -2951 629 -315 1341 -484 2043 -484
1230 0 2411 499 3268 1379 702 722 1137 1626 1262 2626 18 147 35 388 35 513
0 84 2 93 18 88 9 -2 330 -71 712 -151 382 -81 700 -149 706 -150 26 -7 30
-2125 8 -4367 l-7 -648 -5987 0 -5988 0 -8 288 c-4 158 -8 1297 -8 2532 l-1
2245 705 151 c388 84 707 152 711 153 3 1 10 -115 17 -256z m-1730 -2161 c1
-1131 5 -2237 10 -2457 4 -220 6 -421 4 -447 l-3 -48 -543 0 c-335 0 -565 -4
-602 -11 -183 -32 -349 -118 -491 -253 -162 -153 -259 -328 -316 -571 l-22
-90 -2 -4662 -3 -4663 -1603 0 c-881 0 -1640 -3 -1687 -6 -453 -30 -833 -266
-1069 -666 l-57 -98 -29 53 c-193 358 -514 603 -903 688 -89 19 -136 22 -564
26 -425 5 -468 7 -468 22 0 9 5 65 10 124 10 99 9 112 -9 150 -11 23 -254 316
-539 651 l-520 609 62 61 c75 73 133 158 176 263 30 71 32 84 28 163 -4 77 -9
97 -46 174 -72 151 -158 261 -369 476 l-142 145 37 -2 c329 -22 393 -34 537
-102 174 -83 337 -221 496 -421 144 -180 292 -423 384 -631 26 -58 59 -116 75
-131 52 -48 77 -46 343 21 1329 336 2418 645 3255 923 341 113 379 130 400
185 9 22 163 871 326 1793 8 47 24 135 35 195 11 61 30 164 41 230 31 175 47
263 175 975 64 355 165 922 226 1260 60 338 144 804 185 1035 42 231 79 443
84 470 5 28 67 376 139 775 71 399 140 779 151 845 33 185 50 279 185 1030 69
385 161 903 205 1150 92 515 124 666 181 855 262 870 807 1484 1589 1793 170
67 317 108 615 170 11 3 22 5 25 6 3 0 6 -925 8 -2057z m12813 1942 c762 -245
1310 -744 1633 -1486 71 -163 146 -388 186 -559 18 -74 202 -786 409 -1584
208 -797 377 -1451 376 -1453 -1 -1 -26 14 -56 34 -69 47 -175 97 -270 126
l-74 23 -1218 3 -1218 2 5 358 c13 783 16 1426 16 2976 l0 1618 36 -7 c20 -3
99 -26 175 -51z m-26116 -9503 c23 -10 67 -47 99 -82 l58 -64 -30 -25 c-16
-14 -84 -71 -150 -128 l-121 -103 -55 66 c-82 101 -93 170 -40 262 17 29 39
48 76 67 61 31 108 33 163 7z m540 -606 c209 -245 210 -246 430 -505 87 -102
177 -207 200 -235 265 -310 580 -681 622 -731 l52 -62 -67 -44 c-37 -23 -104
-79 -149 -124 -45 -45 -83 -78 -85 -74 -2 4 -28 35 -58 70 -93 107 -133 154
-180 210 -42 50 -297 350 -395 465 -24 28 -114 133 -200 235 -87 102 -177 208
-200 235 -387 453 -456 538 -448 546 36 36 279 238 284 236 4 -1 91 -101 194
-222z m1891 -1750 c121 -28 244 -94 464 -251 341 -242 696 -570 869 -803 59
-81 111 -176 111 -206 0 -27 -59 -134 -97 -176 -44 -49 -93 -78 -198 -118 -45
-17 -100 -45 -122 -61 -54 -40 -91 -115 -99 -199 -16 -189 -172 -628 -330
-931 -95 -181 -185 -313 -283 -411 -120 -119 -143 -129 -312 -129 -474 1 -722
224 -801 722 -18 114 -18 1332 0 1568 51 662 114 827 367 950 130 64 283 80
431 45z m1349 -2055 c44 -52 82 -97 85 -100 3 -3 55 -63 115 -135 60 -71 119
-141 131 -155 12 -14 93 -108 179 -210 87 -102 179 -210 205 -240 179 -208
170 -195 170 -248 0 -27 -3 -70 -6 -96 l-7 -46 -167 0 -168 0 -36 45 c-20 24
-43 50 -49 57 -7 7 -62 72 -122 143 -117 139 -142 168 -191 224 -39 46 -365
431 -381 452 -10 12 -4 39 26 134 21 66 49 166 62 222 l24 103 25 -28 c14 -15
61 -70 105 -122z m-92 -950 l234 -275 -218 -3 c-120 -1 -319 -1 -442 0 l-224
3 68 94 c79 110 178 284 245 426 l46 99 28 -34 c16 -19 134 -159 263 -310z"/>
<path d="M43976 31969 c-56 -16 -106 -84 -106 -144 0 -14 9 -42 19 -63 25 -48
657 -677 694 -691 90 -34 186 16 203 104 14 77 11 81 -339 433 -183 183 -345
340 -360 348 -36 19 -74 23 -111 13z"/>
<path d="M49205 31969 c-41 -11 -711 -682 -721 -722 -13 -54 2 -108 40 -146
34 -34 40 -36 101 -36 l65 0 345 345 c190 190 347 352 350 360 12 40 13 72 2
105 -11 39 -66 94 -95 96 -9 1 -26 2 -37 4 -11 1 -33 -2 -50 -6z"/>
<path d="M3380 31163 l0 -552 53 -16 c410 -119 1096 -138 1562 -44 364 73 647
210 846 408 165 164 258 358 259 539 l0 52 -62 -63 c-39 -39 -90 -77 -133 -99
-382 -197 -1174 -268 -1694 -152 -387 87 -730 274 -814 445 -16 32 -17 3 -17
-518z"/>
<path d="M15033 31259 c-76 -13 -202 -61 -268 -103 -171 -110 -291 -292 -325
-491 -8 -53 -10 -716 -8 -2680 l3 -2610 23 -70 c87 -257 269 -432 518 -495 76
-20 123 -20 2699 -20 2577 0 2623 0 2699 20 200 51 373 194 467 386 74 153 69
-70 69 2829 1 2590 1 2611 -20 2690 -35 138 -91 237 -189 335 -126 125 -245
186 -407 210 -86 12 -5186 11 -5261 -1z m5265 -303 c135 -36 246 -141 297
-281 16 -44 19 -92 23 -387 l4 -338 -2947 0 -2946 0 3 353 3 352 26 55 c57
120 149 203 267 241 55 17 163 18 2637 18 2182 1 2588 -1 2633 -13z m322
-2783 l0 -1488 -802 -802 -803 -803 -1955 0 c-2139 0 -2016 -3 -2119 57 -110
64 -190 180 -210 303 -12 72 -16 4202 -4 4213 3 4 1331 7 2950 7 l2943 0 0
-1487z m-10 -2708 c-24 -191 -163 -340 -349 -375 -31 -6 -219 -10 -440 -10
l-386 0 590 590 590 590 3 -357 c2 -208 -2 -392 -8 -438z"/>
<path d="M16640 28645 c-131 -28 -256 -91 -366 -183 -71 -58 -93 -136 -59
-202 46 -89 156 -105 235 -34 54 49 147 102 209 121 236 68 495 -91 509 -315
4 -55 0 -71 -27 -127 -54 -109 -107 -148 -411 -297 -372 -183 -490 -265 -589
-414 -66 -98 -102 -211 -105 -321 -1 -87 10 -114 65 -155 38 -29 115 -32 709
-33 516 0 557 1 588 18 100 55 95 208 -8 259 -32 16 -79 18 -532 18 -274 0
-498 4 -498 8 0 16 56 86 99 125 68 61 135 100 413 236 209 103 279 143 343
194 165 133 247 291 248 476 0 149 -58 292 -168 410 -169 181 -423 265 -655
216z"/>
<path d="M17860 28622 c-47 -23 -83 -93 -75 -142 10 -51 40 -96 79 -114 30
-14 93 -16 499 -16 363 0 466 -3 469 -12 3 -7 3 -32 1 -56 -3 -37 -16 -58 -99
-158 -407 -489 -645 -901 -697 -1210 -14 -83 -10 -128 17 -169 37 -56 142 -77
193 -39 46 35 62 66 78 152 53 281 278 656 680 1132 53 63 103 129 111 147 10
24 14 79 14 210 0 200 -7 229 -69 270 l-34 23 -566 0 c-519 0 -569 -1 -601
-18z"/>
<path d="M46390 31106 c-539 -78 -1015 -376 -1305 -817 -436 -659 -413 -1507
56 -2140 90 -121 247 -278 374 -374 147 -111 177 -154 191 -274 6 -60 6 -61
-18 -61 -30 0 -84 -35 -112 -73 -20 -28 -21 -39 -21 -375 0 -331 1 -350 22
-418 41 -129 134 -241 249 -299 63 -32 146 -55 199 -55 l41 0 12 -82 c30 -210
181 -384 386 -443 68 -20 198 -22 271 -5 203 47 378 239 401 439 11 96 7 91
82 91 173 0 349 106 429 257 61 114 63 133 63 512 0 328 -1 348 -20 379 -23
38 -75 72 -109 72 -23 0 -24 2 -19 65 6 63 31 129 66 169 10 10 60 51 112 90
111 83 275 242 352 341 185 237 309 508 370 806 20 100 23 143 23 349 0 206
-3 249 -23 350 -153 759 -739 1340 -1494 1481 -146 27 -440 34 -578 15z m-294
-1596 c95 -24 194 -74 289 -143 38 -28 194 -173 345 -322 288 -283 346 -328
459 -362 136 -39 282 30 342 161 27 60 25 157 -5 221 -30 65 -104 131 -169
150 -91 27 -168 15 -246 -39 -73 -51 -155 -44 -209 19 -67 76 -46 176 51 240
124 82 306 115 451 81 202 -48 361 -196 422 -392 23 -74 26 -96 22 -196 -5
-131 -25 -196 -89 -295 -54 -82 -129 -150 -215 -195 -97 -50 -154 -63 -271
-63 l-103 0 0 -467 0 -468 -150 0 -150 0 0 534 0 534 -37 28 c-64 47 -119 99
-368 344 -249 245 -324 303 -431 336 -189 57 -374 -78 -374 -270 0 -94 65
-198 151 -242 94 -47 195 -41 283 17 25 17 61 33 80 36 53 8 119 -14 158 -54
l33 -34 3 -615 2 -614 -150 0 -150 0 0 468 0 468 -117 -1 c-146 0 -225 22
-335 94 -245 159 -328 480 -195 749 66 135 224 260 373 296 87 21 207 19 300
-4z m1324 -2586 c0 -150 -4 -241 -12 -268 -16 -53 -81 -118 -134 -134 -54 -16
-1219 -17 -1277 -1 -49 13 -105 63 -128 114 -16 35 -19 69 -19 278 l0 237 785
0 785 0 0 -226z"/>
<path d="M42870 29342 c-98 -49 -107 -195 -15 -252 31 -19 49 -20 521 -20 467
0 490 1 521 20 42 25 66 73 65 129 -1 51 -21 84 -72 119 l-33 22 -476 0 c-433
0 -479 -2 -511 -18z"/>
<path d="M49380 29342 c-49 -26 -83 -93 -75 -147 8 -50 27 -80 68 -106 31 -19
50 -19 529 -17 l496 3 27 25 c60 56 71 136 27 198 -45 62 -42 62 -564 62 -439
0 -476 -1 -508 -18z"/>
<path d="M10371 28924 c-15 -11 -81 -133 -181 -338 -166 -341 -183 -365 -258
-385 -20 -6 -183 -31 -362 -57 -179 -26 -335 -51 -348 -55 -28 -11 -55 -70
-46 -104 4 -16 109 -126 265 -277 142 -139 265 -266 274 -284 22 -47 20 -76
-36 -396 -64 -371 -67 -406 -43 -436 11 -12 34 -26 52 -32 35 -9 30 -12 307
135 370 196 378 199 431 199 52 -1 54 -2 309 -139 33 -18 135 -71 226 -118
154 -80 169 -86 200 -77 68 20 77 56 51 202 -86 469 -104 591 -91 635 10 38
46 77 280 307 257 251 269 265 269 300 0 28 -7 45 -27 65 -27 26 -42 29 -363
75 -184 26 -351 52 -370 58 -77 24 -84 35 -255 384 -101 206 -171 337 -184
343 -29 16 -73 13 -100 -5z"/>
<path d="M44585 27356 c-16 -8 -182 -166 -367 -352 -292 -294 -337 -344 -343
-376 -4 -21 -4 -50 0 -65 22 -88 127 -139 203 -99 15 8 178 167 364 353 355
357 359 362 343 436 -20 91 -116 141 -200 103z"/>
<path d="M48560 27352 c-71 -35 -100 -122 -65 -196 9 -18 165 -181 348 -363
288 -287 337 -332 370 -338 84 -16 156 27 177 106 21 78 15 87 -344 448 -184
186 -345 339 -363 347 -43 19 -81 18 -123 -4z"/>
<path d="M8311 24376 c-10 -12 -1 -92 40 -375 29 -199 50 -364 46 -367 -3 -3
-166 19 -362 50 -376 60 -385 60 -385 12 0 -15 118 -139 388 -407 343 -343
394 -390 452 -418 54 -26 107 -38 315 -72 l250 -41 282 -281 282 -281 -40 -45
c-85 -98 -257 -335 -326 -448 -246 -407 -393 -828 -459 -1318 -24 -182 -25
-609 -1 -788 136 -1018 671 -1859 1526 -2401 381 -241 824 -403 1291 -470 134
-19 435 -37 520 -31 36 2 115 7 175 10 139 8 384 46 540 84 887 218 1638 787
2087 1581 236 416 382 897 415 1365 48 669 -98 1317 -425 1890 -219 383 -542
745 -911 1018 -437 325 -959 534 -1526 612 -158 22 -521 30 -685 16 -721 -64
-1371 -338 -1901 -803 -37 -32 -71 -58 -76 -58 -5 0 -129 123 -276 274 l-266
273 -40 255 c-39 250 -60 329 -103 392 -12 17 -190 201 -397 409 -378 380
-401 399 -430 363z m4109 -1410 c1230 -147 2246 -1039 2551 -2239 33 -130 66
-314 75 -416 3 -36 8 -77 10 -91 8 -53 4 -402 -6 -511 -56 -586 -280 -1141
-646 -1599 -96 -120 -350 -373 -473 -469 -474 -375 -1013 -588 -1624 -642
-125 -11 -483 -7 -582 6 -457 63 -823 186 -1173 393 -239 143 -399 266 -596
460 -490 484 -789 1097 -871 1788 -15 128 -21 504 -9 609 45 407 135 724 296
1053 109 221 280 481 416 632 l41 45 185 -185 c102 -102 186 -190 186 -197 0
-6 -6 -18 -14 -26 -34 -33 -161 -208 -211 -288 -512 -828 -494 -1874 47 -2674
90 -132 159 -217 283 -344 380 -391 864 -636 1425 -723 135 -21 568 -17 703 5
271 46 473 110 712 227 712 348 1212 1015 1345 1793 73 429 31 868 -121 1275
-215 573 -641 1052 -1179 1327 -373 190 -706 269 -1125 269 -119 0 -251 -5
-305 -13 -476 -66 -869 -233 -1237 -527 -47 -38 -92 -73 -99 -79 -11 -7 -59
35 -199 175 -102 102 -184 190 -183 197 2 6 51 51 109 100 427 354 953 586
1504 662 72 10 168 19 215 20 47 1 87 5 90 8 9 9 327 -6 460 -21z m-182 -1257
c407 -44 767 -215 1048 -497 244 -244 399 -533 476 -882 20 -93 23 -131 23
-345 -1 -210 -3 -253 -23 -341 -74 -342 -237 -641 -482 -884 -270 -269 -595
-430 -980 -486 -154 -22 -430 -15 -575 16 -229 49 -481 158 -665 288 -113 80
-304 266 -384 375 -334 451 -430 1044 -256 1577 57 174 185 412 280 520 l30
35 210 -215 210 -215 -88 -8 c-48 -4 -107 -11 -132 -15 l-45 -7 295 -187 c173
-109 294 -192 293 -200 -2 -7 -12 -47 -23 -88 -30 -106 -24 -275 12 -372 73
-196 223 -339 418 -400 110 -34 275 -32 380 4 114 40 168 74 255 162 126 127
185 268 185 442 1 446 -438 750 -862 598 -58 -21 -73 -24 -83 -12 -6 7 -85
130 -175 273 -89 143 -168 266 -175 273 -13 14 -16 -4 -31 -181 l-7 -79 -219
219 -219 218 38 33 c64 55 223 157 322 206 200 101 366 147 636 179 67 8 221
6 313 -4z"/>
<path d="M79308 21780 c-148 -25 -264 -135 -298 -282 -5 -24 -10 -91 -10 -150
l0 -108 -752 0 -753 0 -210 -307 c-280 -409 -443 -648 -521 -763 -36 -52 -121
-176 -189 -275 -191 -278 -320 -468 -323 -477 -2 -4 615 -8 1371 -8 l1374 0 5
-137 c6 -149 16 -191 71 -271 34 -50 103 -104 167 -129 42 -17 125 -18 1328
-21 l1282 -2 0 150 0 150 -1258 0 c-1213 0 -1260 1 -1276 19 -15 17 -16 104
-16 1152 l0 1134 21 18 c20 16 96 17 1275 17 l1254 0 0 150 0 150 -1247 -1
c-687 -1 -1269 -5 -1295 -9z"/>
<path d="M51195 21729 c-139 -23 -270 -93 -376 -198 -92 -92 -150 -188 -182
-301 -32 -111 -36 -161 -37 -427 l0 -223 -554 0 -554 0 -4 113 c-3 101 -7 119
-34 177 -57 118 -142 193 -262 230 -61 19 -95 20 -713 20 -630 0 -651 -1 -711
-21 -187 -63 -298 -227 -298 -441 l0 -78 -97 -1 c-154 -1 -239 -21 -354 -80
-176 -91 -299 -241 -361 -439 l-23 -75 0 -1890 c0 -2125 -7 -1934 77 -2105 33
-70 57 -101 132 -176 100 -99 175 -145 306 -186 l75 -23 3455 0 c3263 0 3459
1 3520 18 36 9 103 36 150 59 69 34 102 58 175 132 74 74 99 107 132 176 85
174 78 -22 78 2100 0 2122 7 1926 -78 2100 -54 112 -186 248 -292 302 -135 69
-187 80 -407 86 l-198 4 -1 252 c0 138 -3 265 -5 281 -37 261 -202 474 -444
572 -133 53 -122 53 -1130 52 -514 -1 -957 -5 -985 -10z m2035 -327 c68 -32
158 -120 190 -186 41 -87 49 -144 50 -397 l1 -239 -1286 0 -1286 0 3 278 3
278 33 67 c43 86 113 156 199 199 l68 33 935 5 c514 3 958 1 985 -3 28 -5 75
-20 105 -35z m-4102 -592 c52 -32 72 -74 72 -152 l0 -68 -715 0 -715 0 -1 28
c-4 117 14 166 71 194 32 17 84 18 645 18 591 0 611 -1 643 -20z m1113 -949
c196 -34 432 -121 590 -218 104 -65 236 -169 339 -270 l95 -93 1587 0 1588 0
0 -1175 0 -1175 -1621 0 -1621 0 -62 -60 c-65 -63 -192 -163 -254 -202 -20
-12 -43 -28 -50 -34 -25 -25 -240 -124 -343 -158 -199 -66 -305 -81 -559 -80
-195 0 -239 3 -330 23 -146 31 -319 90 -438 150 -146 73 -346 216 -447 320
l-39 41 -873 0 -873 0 0 1175 0 1175 841 0 842 0 76 78 c81 83 232 207 321
264 206 132 495 231 747 258 125 13 349 4 484 -19z"/>
<path d="M79928 21091 c-109 -35 -197 -122 -233 -230 -13 -41 -15 -115 -13
-557 l3 -509 27 -57 c34 -73 103 -142 176 -176 l57 -27 953 -3 952 -2 0 790 0
790 -932 -1 c-874 0 -937 -1 -990 -18z"/>
<path d="M64048 20620 c-173 -29 -364 -142 -477 -282 -64 -78 -123 -195 -147
-286 l-18 -71 -576 -3 -575 -3 -57 -27 c-101 -47 -199 -162 -222 -260 l-6 -28
-398 0 c-439 0 -461 -2 -582 -63 -88 -44 -195 -150 -243 -243 -73 -141 -67
255 -67 -4365 0 -4116 0 -4167 20 -4243 53 -209 212 -367 425 -421 52 -13 412
-15 3060 -15 3303 0 3054 -5 3193 62 96 46 210 161 257 259 71 150 65 -228 63
4386 l-3 4168 -23 68 c-55 163 -153 278 -299 351 -113 56 -137 59 -548 63
-209 2 -390 3 -402 3 -13 0 -23 6 -23 13 0 31 -63 141 -105 182 -25 26 -76 61
-113 78 l-67 32 -571 3 -571 3 -18 64 c-62 231 -247 440 -468 528 -127 51
-303 70 -439 47z m257 -295 c221 -57 364 -231 385 -466 8 -87 29 -127 84 -153
30 -14 103 -16 656 -16 l622 0 34 -34 35 -35 -3 -483 c-3 -473 -3 -484 -25
-523 -27 -51 -85 -109 -131 -131 -20 -9 -72 -21 -116 -26 -45 -4 -821 -7
-1726 -6 l-1645 3 -46 21 c-66 31 -114 78 -146 142 l-28 57 -3 450 c-4 496 -2
513 51 545 31 19 55 20 645 20 669 0 654 -1 704 58 21 25 27 46 33 109 13 146
64 253 167 349 121 114 295 160 453 119z m-2345 -1307 c0 -390 5 -430 62 -548
43 -88 159 -203 249 -247 135 -66 19 -63 1910 -63 1021 0 1736 4 1765 9 159
30 292 120 380 257 81 126 85 156 84 582 l-1 362 379 0 c411 0 428 -2 499 -56
45 -34 90 -97 103 -143 15 -54 14 -8321 -1 -8372 -19 -63 -78 -130 -144 -164
l-59 -30 -3000 0 -3001 0 -51 27 c-63 33 -116 91 -140 154 -19 48 -19 153 -19
4209 l0 4160 23 47 c32 65 94 123 155 147 49 19 77 20 430 20 l377 1 0 -352z"/>
<path d="M63537 17036 c-20 -8 -44 -20 -53 -27 -46 -38 -59 -139 -24 -196 41
-68 -67 -63 1479 -63 l1399 0 32 26 c17 15 37 39 45 55 34 64 7 157 -56 194
-34 20 -54 20 -1409 22 -1133 2 -1382 0 -1413 -11z"/>
<path d="M63520 15618 c-72 -50 -88 -140 -39 -213 48 -70 -47 -66 1479 -63
l1375 3 34 24 c86 61 80 196 -11 251 -33 20 -54 20 -1419 20 l-1386 0 -33 -22z"/>
<path d="M63525 14226 c-55 -25 -78 -60 -83 -126 -4 -51 -1 -65 19 -95 48 -70
-61 -65 1476 -65 1367 0 1388 0 1421 20 97 59 95 202 -3 257 l-40 23 -1380 -1
c-1128 0 -1385 -2 -1410 -13z"/>
<path d="M64255 12830 c-577 -4 -735 -8 -753 -18 -88 -50 -81 -209 11 -260 30
-16 121 -17 1427 -14 l1395 3 32 22 c45 30 66 78 61 137 -5 52 -28 89 -73 117
-28 17 -68 18 -700 18 -368 0 -998 -2 -1400 -5z"/>
<path d="M24094 17370 c-291 -52 -733 -325 -1289 -795 -300 -253 -528 -467
-930 -869 -615 -616 -740 -760 -1197 -1376 -79 -107 -251 -339 -382 -514 -131
-175 -247 -333 -257 -350 -39 -63 -10 -152 64 -198 110 -69 237 -203 310 -327
30 -50 59 -87 77 -96 40 -20 109 -19 145 3 25 15 599 441 1135 841 592 442
1573 1413 2136 2116 453 564 667 970 652 1234 -14 237 -209 377 -464 331z
m154 -302 c37 -37 -11 -221 -100 -388 -145 -270 -488 -731 -814 -1090 -370
-409 -610 -654 -1054 -1075 -187 -177 -605 -535 -626 -535 -9 0 -123 99 -228
200 -126 121 -269 287 -260 302 36 61 376 453 579 668 126 134 653 661 744
744 42 39 105 97 141 130 87 81 279 249 360 316 36 30 67 57 70 60 7 8 231
185 305 241 271 206 575 383 725 423 68 18 142 20 158 4z m-3038 -3096 c41
-40 103 -96 137 -125 34 -28 62 -54 62 -57 0 -4 -784 -592 -798 -597 -3 -2
-17 13 -31 33 -13 20 -64 76 -112 125 l-87 89 132 178 c74 97 206 275 295 395
l162 217 82 -92 c46 -51 117 -125 158 -166z"/>
<path d="M79271 14500 c-28 -7 -1130 -1104 -6263 -6237 -4785 -4785 -6230
-6236 -6237 -6261 -17 -61 9 -130 62 -162 32 -20 101 -20 6276 -20 6242 0
6244 0 6276 20 18 11 40 36 49 54 15 31 16 564 16 6266 0 5702 -1 6235 -16
6266 -27 57 -98 89 -163 74z m-111 -6450 l0 -5940 -350 0 -349 0 -3 404 -3
404 -25 27 c-74 80 -177 72 -244 -18 -20 -28 -21 -41 -24 -423 l-3 -394 -605
0 -604 0 0 388 c0 358 -1 390 -19 422 -29 55 -64 75 -129 75 -44 0 -65 -5 -91
-24 -60 -43 -61 -50 -61 -476 l0 -385 -610 0 -609 0 -3 404 -3 404 -25 27
c-73 78 -189 72 -242 -14 -23 -36 -23 -41 -26 -429 l-3 -392 -604 0 -604 0 -3
398 c-3 392 -3 397 -25 428 -61 86 -192 83 -250 -5 -23 -34 -23 -35 -23 -427
l0 -394 -610 0 -610 0 0 394 c0 392 0 393 -23 427 -61 92 -181 90 -251 -4 -20
-28 -21 -41 -24 -423 l-3 -394 -604 0 -605 0 0 383 c0 377 0 383 -22 427 -52
101 -191 107 -255 11 -23 -34 -23 -35 -23 -427 l0 -394 -610 0 -610 0 0 394
c0 392 0 393 -23 427 -64 96 -212 87 -261 -15 -14 -30 -16 -85 -16 -420 l0
-386 -897 0 -898 0 5940 5940 c3267 3267 5941 5940 5942 5940 2 0 3 -2673 3
-5940z"/>
<path d="M71562 14132 c-18 -10 -42 -31 -52 -48 -18 -27 -20 -48 -20 -297 0
-302 2 -312 72 -348 71 -36 154 -14 193 52 19 32 20 52 20 294 0 295 -3 308
-75 345 -48 24 -94 25 -138 2z"/>
<path d="M73065 13610 c-16 -4 -39 -12 -50 -19 -22 -15 -313 -359 -332 -394
-19 -34 -15 -98 7 -135 41 -68 132 -92 196 -53 30 18 315 348 341 395 19 33
16 107 -7 143 -30 49 -95 76 -155 63z"/>
<path d="M70083 13590 c-18 -10 -39 -33 -48 -49 -18 -35 -20 -103 -3 -134 23
-44 312 -380 342 -398 126 -77 275 82 192 204 -44 64 -298 362 -325 379 -36
25 -117 24 -158 -2z"/>
<path d="M69308 12245 c-86 -47 -90 -194 -6 -249 26 -17 455 -96 522 -96 98 0
163 107 122 204 -25 61 -54 72 -299 116 -244 43 -297 47 -339 25z"/>
<path d="M73601 12219 c-230 -42 -256 -53 -285 -113 -45 -94 20 -206 119 -206
68 0 496 78 522 96 84 54 84 193 0 244 -45 28 -105 24 -356 -21z"/>
<path d="M19970 10642 c-19 -9 -45 -32 -57 -51 -23 -34 -23 -35 -23 -420 0
-368 1 -388 20 -419 61 -101 204 -95 258 11 l24 45 -9 379 c-8 369 -9 379 -30
409 -23 32 -86 64 -126 64 -12 0 -38 -8 -57 -18z"/>
<path d="M19940 9090 c-349 -48 -632 -312 -705 -655 -19 -92 -19 -247 1 -343
44 -216 176 -407 360 -524 153 -98 269 -131 454 -132 153 0 227 17 365 84 309
151 482 448 462 793 -24 426 -354 756 -783 780 -49 3 -118 2 -154 -3z m293
-323 c263 -101 405 -379 331 -647 -64 -229 -279 -390 -519 -390 -224 0 -426
147 -503 363 -32 92 -36 232 -8 317 66 196 194 321 389 375 80 23 225 14 310
-18z"/>
<path d="M67913 8580 c-121 -18 -243 -66 -358 -143 -38 -25 -368 -347 -882
-861 -638 -637 -827 -831 -842 -866 -13 -29 -21 -67 -21 -106 0 -114 8 -124
469 -585 457 -458 474 -472 581 -473 113 -1 72 -37 886 776 l752 750 76 -79
c98 -104 111 -121 144 -190 23 -50 27 -71 27 -148 -1 -77 -5 -99 -30 -155 -27
-61 -81 -118 -983 -1022 l-955 -957 -5 -55 c-3 -44 0 -62 17 -89 37 -60 127
-85 189 -53 15 8 459 448 988 978 l961 963 42 86 c56 116 74 206 68 339 -10
190 -59 296 -224 476 l-114 124 39 64 c199 330 120 784 -182 1038 -171 144
-427 219 -643 188z m276 -314 c93 -31 157 -74 226 -148 95 -103 137 -213 137
-357 -1 -107 -26 -194 -83 -281 -28 -43 -280 -303 -819 -844 l-780 -781 -375
375 -375 375 786 786 c546 546 803 796 842 820 136 82 300 103 441 55z"/>
<path d="M21566 8419 c-112 -32 -134 -206 -33 -270 31 -20 44 -20 417 -16 339
3 389 6 418 21 44 23 72 71 72 124 0 53 -20 94 -62 123 -32 23 -34 23 -407 25
-207 1 -389 -2 -405 -7z"/>
<path d="M17915 8390 c-189 -6 -210 -12 -241 -72 -24 -45 -15 -130 17 -164 47
-52 58 -53 455 -53 323 1 373 3 404 17 105 51 108 217 4 267 -36 17 -186 18
-639 5z"/>
<path d="M58383 6979 c-30 -15 -47 -32 -61 -62 -13 -27 -40 -170 -76 -402
l-57 -360 -424 -420 c-397 -392 -426 -423 -435 -465 -6 -29 -10 -995 -10
-2657 l0 -2613 150 0 150 0 0 2588 0 2589 173 167 c94 92 267 262 383 377
l210 209 402 0 401 0 53 -52 c29 -29 203 -200 386 -380 l332 -327 0 -2585 0
-2586 145 0 145 0 0 2641 c0 1884 -3 2647 -11 2662 -6 12 -200 209 -430 437
l-420 415 -60 375 c-62 393 -64 401 -123 444 -26 20 -41 21 -404 24 -366 2
-378 2 -419 -19z m622 -294 c3 -11 18 -105 35 -210 17 -104 33 -202 36 -217
l6 -28 -292 0 -292 0 5 28 c3 15 19 117 37 227 17 110 33 205 34 210 2 6 83
10 215 10 204 0 212 -1 216 -20z"/>
<path d="M19992 6834 c-18 -9 -43 -31 -55 -48 -22 -31 -22 -32 -19 -416 3
-335 6 -389 20 -419 49 -100 186 -106 249 -12 23 34 23 35 23 415 0 418 -1
425 -62 469 -36 27 -114 32 -156 11z"/>
<path d="M35475 6729 c-93 -14 -262 -58 -345 -91 -532 -211 -900 -651 -1012
-1210 -33 -165 -32 -445 1 -608 46 -227 123 -412 247 -597 248 -369 635 -619
1075 -694 164 -28 449 -23 603 10 260 56 489 165 691 330 115 93 128 106 210
203 177 209 286 428 351 703 27 114 29 132 28 350 0 217 -1 237 -28 350 -15
65 -39 151 -53 190 -200 554 -677 957 -1251 1056 -123 20 -399 25 -517 8z
m525 -313 c262 -61 475 -181 663 -375 246 -254 369 -560 370 -916 1 -354 -124
-662 -371 -917 -198 -204 -446 -336 -732 -389 -100 -19 -348 -16 -454 5 -191
37 -349 102 -503 205 -302 203 -509 527 -569 890 -21 132 -15 364 15 491 126
549 573 956 1131 1029 116 15 333 4 450 -23z"/>
<path d="M50964 5176 c-17 -8 -42 -29 -55 -47 l-24 -34 0 -395 c0 -389 0 -396
22 -436 28 -53 91 -107 142 -122 23 -7 111 -12 220 -12 l181 0 0 -315 0 -315
-384 0 c-297 0 -403 -3 -472 -15 -473 -81 -771 -377 -886 -883 -22 -97 -22
-99 -25 -1349 l-4 -1253 151 0 150 0 0 1229 c0 1062 2 1240 15 1303 83 398
314 623 685 668 54 6 607 10 1530 10 1587 0 1561 1 1718 -60 228 -88 403 -295
484 -575 l23 -80 3 -1248 2 -1247 145 0 145 0 -2 1273 -3 1272 -27 97 c-132
466 -447 766 -883 842 -71 13 -170 16 -467 16 l-378 0 0 315 0 315 188 0 c175
0 190 2 238 24 28 13 65 41 82 62 59 71 62 100 62 495 -1 347 -2 358 -23 400
-44 86 67 79 -1307 79 -998 -1 -1221 -3 -1246 -14z m2276 -516 l0 -240 -1030
0 -1030 0 0 240 0 240 1030 0 1030 0 0 -240z m-570 -845 l0 -315 -465 0 -465
0 0 315 0 315 465 0 465 0 0 -315z"/>
<path d="M59555 3513 c-32 -8 -1644 -995 -1676 -1026 -80 -79 -29 -225 86
-243 55 -8 51 -9 341 169 241 148 1127 689 1269 775 102 62 131 85 151 124 54
104 -53 229 -171 201z"/>
<path d="M62768 2732 c-242 -242 -247 -250 -213 -338 26 -68 90 -103 163 -89
31 6 69 38 249 218 117 116 211 212 210 214 -2 1 -17 -1 -34 -6 -29 -8 -35 -5
-103 58 l-72 67 12 43 c6 24 10 45 8 47 -2 2 -101 -94 -220 -214z"/>
</g>
</svg>
